<svg xmlns="http://www.w3.org/2000/svg" viewBox="0 0 40.2 40.2"><path d="M37.1 11.8H21.8V3.1c0-1.6-1.3-3-3-3H3.1c-1.7 0-3 1.4-3 3v34c0 1.7 1.3 3 3 3h34c1.7 0 3-1.3 3-3V14.8c0-1.7-1.3-3-3-3zM6.4 38.1v-5.7c0-.5.4-1 1-1h2.5v6.7H6.4zm9 0h-3.5v-6.7h2.5c.6 0 1 .5 1 1v5.7zm4.4 0h-2.3v-5.7c0-1.7-1.3-3-3-3h-7c-1.7 0-3 1.3-3 3v5.7H3.1c-.5 0-1-.4-1-1v-34c0-.6.5-1 1-1h15.7c.5 0 1 .4 1 1v35zm18.3-1c0 .6-.5 1-1 1H21.8V13.8h15.3c.5 0 1 .5 1 1v22.3z"/><path d="M16.4 6.9h-11c-.6 0-1-.4-1-1s.4-1 1-1h11c.6 0 1 .4 1 1s-.4 1-1 1zM16.4 11.9h-11c-.6 0-1-.4-1-1s.4-1 1-1h11c.6 0 1 .4 1 1s-.4 1-1 1zM16.4 16.9h-11c-.6 0-1-.4-1-1s.4-1 1-1h11c.6 0 1 .4 1 1s-.4 1-1 1zM16.4 21.9h-11c-.6 0-1-.4-1-1s.4-1 1-1h11c.6 0 1 .4 1 1s-.4 1-1 1zM35.4 18.9h-11c-.6 0-1-.4-1-1s.4-1 1-1h11c.6 0 1 .4 1 1s-.4 1-1 1zM35.4 23.9h-11c-.6 0-1-.4-1-1s.4-1 1-1h11c.6 0 1 .4 1 1s-.4 1-1 1zM35.4 28.9h-11c-.6 0-1-.4-1-1s.4-1 1-1h11c.6 0 1 .4 1 1s-.4 1-1 1z"/></svg>
