<svg xmlns="http://www.w3.org/2000/svg" viewBox="0 0 420.5 505"><path d="M412.1 173.1l-38.2-3.7c-4.1-16.2-10.6-31.6-19.4-45.9l24.3-29.3c2.6-3.2 2.4-7.8-.5-10.8l-41.7-41.7c-2.9-2.9-7.6-3.1-10.8-.5l-29.3 24.3c-14.2-8.7-29.7-15.2-45.8-19.3L247 8.1c-.4-4.1-3.8-7.2-8-7.2h-57c-4.1 0-7.6 3.1-8 7.2l-3.7 38.2c-16.1 4.2-31.6 10.7-45.8 19.3L95.2 41.2c-3.2-2.6-7.8-2.4-10.8.5L42.7 83.5c-2.9 2.9-3.1 7.6-.5 10.8l24.3 29.3c-8.7 14.2-15.2 29.7-19.3 45.9l-38.3 3.7c-4.1.4-7.3 3.8-7.4 8v59.2c.1 4.1 3.2 7.6 7.4 8l38.2 3.7c4.2 16.1 10.7 31.6 19.3 45.8l-24.3 29.3c-2.8 3.3-2.4 8.2.9 11.1l31.7 28c3.3 2.9 8.4 2.6 11.3-.7.2-.2.4-.5.6-.7l45.5-65.3c2.2-3.2 1.8-7.5-.9-10.2-43.4-43.4-43.4-113.7 0-157.1s113.7-43.4 157.1 0 43.4 113.7 0 157.1c-2.8 2.8-3.1 7.2-.8 10.3l47.1 65.3c2.6 3.6 7.6 4.4 11.2 1.8.2-.2.4-.3.6-.5l31.7-28c3.2-2.9 3.6-7.8.9-11.1l-24.3-29.3c8.7-14.2 15.2-29.7 19.3-45.8l38.3-3.7c4.1-.4 7.3-3.8 7.3-8v-59.2c-.2-4.3-3.3-7.7-7.5-8.1zm-15.6 58.1l-35.4 3.4c-3.3.3-6.1 2.7-6.8 6-3.9 17.6-11 34.3-20.8 49.4-1.9 2.8-1.7 6.5.5 9.1l22.2 26.8-18.6 16.4-36.7-50.8c45.2-50.3 41-127.8-9.3-173s-127.8-41-173 9.3c-41.8 46.6-41.8 117.2.1 163.8l-35.3 50.7L65 326l22.2-26.8c2.2-2.6 2.4-6.3.5-9.1-9.9-15.1-16.9-31.8-20.8-49.4-.8-3.3-3.6-5.7-6.9-6l-35.4-3.4v-43l35.4-3.4c3.4-.3 6.1-2.8 6.9-6 3.8-17.6 10.9-34.3 20.8-49.3 1.9-2.8 1.7-6.6-.5-9.2L64.6 93l30.3-30.3 27.2 22.5c2.6 2.2 6.3 2.4 9.1.5 15.1-9.9 31.8-16.9 49.4-20.8 3.3-.7 5.7-3.4 6-6.7L190 23h41l3.4 35.2c.3 3.3 2.8 6 6 6.7 17.6 3.9 34.3 10.9 49.4 20.8 2.8 1.9 6.5 1.6 9.1-.5l27.2-22.5L356.4 93l-22.5 27.2c-2.2 2.6-2.4 6.3-.5 9.2 9.9 15 17 31.7 20.8 49.3.8 3.3 3.5 5.7 6.9 6l35.4 3.4v43.1z"/><path d="M301.4 355.3L217 237.5c-1.5-2.1-3.9-3.4-6.5-3.5-2.6.1-5 1.4-6.5 3.5l-84.4 117.4c-.1.2-.3.5-.4.7-17 29.1-16.8 64.6.6 94.7 28.4 50.1 92.1 67.7 142.2 39.3 16.5-9.3 30.1-23 39.4-39.4 17.2-30.1 17.4-65.3.5-94.3-.2-.2-.3-.4-.5-.6zm-20.1 81.3c-22 39.1-71.6 52.9-110.7 30.9a81.34 81.34 0 01-30.8-30.8c-13.4-23.4-13.7-49.6-.7-72.1l71.5-99.3 71.5 99.6c12.8 22.2 12.6 48.4-.8 71.7z"/><path d="M261.1 392.3c-4.4 0-8 3.6-8 8-.1 23.8-19.4 43-43.2 43-4.4 0-8 3.6-8 8s3.6 8 8 8c32.6 0 59.1-26.3 59.2-59 0-4.4-3.6-8-8-8z"/></svg>