<svg xmlns="http://www.w3.org/2000/svg" viewBox="0 0 62.2 62.2"><path d="M38.1 52.1c3.9 0 7-3.1 7-7 0-1.5-.5-3-1.4-4.2l-5.6-7.5-5.6 7.5c-.9 1.2-1.4 2.7-1.4 4.2 0 3.9 3.1 7 7 7zm-4-10l4-5.3 4 5.3c.6.9 1 1.9 1 3 0 2.8-2.2 5-5 5s-5-2.2-5-5c0-1.1.3-2.1 1-3zM26.1 12.5L20.5 20c-.9 1.2-1.4 2.7-1.4 4.2 0 3.9 3.1 7 7 7s7-3.1 7-7c0-1.5-.5-3-1.4-4.2l-5.6-7.5zm0 16.6c-2.8 0-5-2.2-5-5 0-1.1.4-2.1 1-3l4-5.3 4 5.3c.6.9 1 1.9 1 3 0 2.8-2.3 5-5 5z"/><path d="M58.1 27.1c-2.2 0-4 1.8-4 4 0 .5.1.9.2 1.3L50.1 35l-11-6.4V15.7l12-7V.1h-2v7.4l-11 6.4-11-6.4V.1h-2v7.4l-11 6.4-6.2-3.8c.1-.3.1-.6.1-1 0-2.2-1.8-4-4-4s-4 1.8-4 4 1.8 4 4 4c1.1 0 2.2-.5 2.9-1.3l6.1 3.8v12.9L1.6 35.3l1 1.7 11.5-6.7 5.5 3.2 5.5 3.2v12.9L15 55.4c-.7-.8-1.8-1.3-2.9-1.3-2.2 0-4 1.8-4 4s1.8 4 4 4 4-1.8 4-4c0-.3 0-.6-.1-.9l10.1-5.9 11 6.4v4.4h2v-4.4l4.8-2.8 6.2-3.6 6.5 3.7 1-1.7-6.5-3.7V36.7l4.3-2.6c.7.6 1.6 1 2.7 1 2.2 0 4-1.8 4-4s-1.8-4-4-4zm-54-16c-1.1 0-2-.9-2-2s.9-2 2-2 2 .9 2 2-.9 2-2 2zm8 49c-1.1 0-2-.9-2-2s.9-2 2-2 2 .9 2 2-.9 2-2 2zm25-31.5l-5.5 3.2-5.5 3.2-5.5-3.2-5.5-3.2V15.7l11-6.4 11 6.4v12.9zm-10 8.1l5.5-3.2 5.5-3.2 11 6.4v12.9l-6.2 3.6-4.8 2.8-11-6.4V36.7zm31-3.6c-1.1 0-2-.9-2-2s.9-2 2-2 2 .9 2 2-.9 2-2 2z"/><path d="M53.1 21.1h2v2h-2zM49.1 21.1h2v2h-2zM45.1 21.1h2v2h-2zM17.1 42.1h2v2h-2zM13.1 42.1h2v2h-2zM9.1 42.1h2v2h-2z"/></svg>