
<svg version="1.1" id="Layer_2" xmlns="http://www.w3.org/2000/svg" x="0" y="0" viewBox="0 0 374.8 116.8" xml:space="preserve"><style>.st2{fill:#2b2a29}</style><path fill="#e31e24" d="M374.8 62.5l-19.1-24.7-295.1 78.7z"/><path fill="#ffd21f" d="M346.3 25.7l9.4 12.1-295.1 78.7z"/><path class="st2" d="M43.1 1.5H14.6L.6 66h33.8c47.9-7.4 44.2-64.5 8.7-64.5zm-7.4 48.3H23.8l6.4-32.3h10.9c15.5 1.7 10.9 29.7-5.4 32.3zM96.6 14.6l2.9-13.1H82.1l-2.9 13.1z"/><path class="st2" d="M78.1 19.2L67.7 66h17.5l10.3-46.8zM174.3 14.6l2.9-13.1h-17.4l-2.9 13.1zM155.9 19.2L145.5 66H163l10.3-46.8zM302 1.5L288.5 66H306l13.4-64.5zM101.1 19.2l5.2 46.8h21.5l23.8-46.8H133l-12 25.9h-1.7l-.1-25.9zM278.9 22.8c-9.1-9.3-26.3-7.2-36.6 2.8-10.3 10.1-11.2 25.8-2 35.1 9.1 9.3 24.8 8.7 35.1-1.4 10.2-10 12.6-27.2 3.5-36.5zm-11.5 21.8c-2.2 6.4-7.3 10.4-11.6 9-4.2-1.4-5.9-7.8-3.8-14.1 2.2-6.4 7.3-10.4 11.6-9s6 7.7 3.8 14.1zM202 23.3l.9-4.1h-17.4L175.1 66h17.5l6.3-28.5c1.8-7.3 14.8-9.6 12.9 0L205.5 66H223l5.3-23.9 1-4.6c5.9-25.3-19.3-21.8-27.3-14.2z"/><text transform="translate(320.96 20.863)" class="st2" font-size="29.939" font-family="MyriadPro-Regular">®</text></svg>