<svg xmlns="http://www.w3.org/2000/svg" viewBox="0 0 62.1 62.5"><path d="M31.1.4c-9.4 0-17 7.6-17 17s7.6 17 17 17 17-7.6 17-17-7.6-17-17-17zm11.7 26.3c-.7-.5-1.7-1.2-3-1.8.7-1.9 1.2-4.1 1.3-6.6h5c-.2 3.2-1.4 6.1-3.3 8.4zm-26.6-8.3h5c.1 2.5.6 4.7 1.3 6.6-1.4.6-2.4 1.2-3 1.8-1.9-2.4-3.1-5.3-3.3-8.4zM19.4 8c.7.5 1.7 1.2 3 1.8-.7 1.9-1.2 4.1-1.3 6.6h-5c.3-3.2 1.5-6.1 3.3-8.4zm10.7-4.9v6.2c-1.9-.1-3.6-.4-4.9-.7 1.5-2.8 3.6-4.6 4.9-5.5zm0 8.2v5h-7c.1-2.3.5-4.3 1.2-5.9 1.6.5 3.5.9 5.8.9zm0 7.1v5c-2.3.1-4.2.4-5.8.9-.6-1.7-1.1-3.6-1.2-5.9h7zm0 7v6.2c-1.4-.9-3.4-2.7-4.9-5.5 1.3-.3 3-.6 4.9-.7zm2 6.2v-6.2c1.9.1 3.6.4 4.9.7-1.5 2.9-3.5 4.6-4.9 5.5zm0-8.2v-5h7c-.1 2.3-.5 4.3-1.2 5.9-1.6-.5-3.5-.8-5.8-.9zm0-7v-5c2.3-.1 4.2-.4 5.8-.9.6 1.7 1.1 3.6 1.2 5.9h-7zm0-7.1V3.1c1.4.9 3.4 2.7 4.9 5.5-1.3.4-2.9.7-4.9.7zm3-6.4c2.4.7 4.6 1.9 6.4 3.6-.5.4-1.4.9-2.5 1.4-1.2-2.2-2.6-3.8-3.9-5zm-11.8 5c-1.1-.5-1.9-1-2.5-1.4 1.8-1.7 3.9-2.9 6.4-3.6-1.4 1.2-2.8 2.8-3.9 5zm0 18.9c1.1 2.2 2.6 3.8 3.9 5-2.4-.7-4.6-1.9-6.4-3.6.5-.4 1.3-.9 2.5-1.4zm15.7 0c1.1.5 1.9 1 2.5 1.4-1.8 1.7-3.9 2.9-6.4 3.6 1.3-1.2 2.7-2.8 3.9-5zm2.1-10.4c-.1-2.5-.6-4.7-1.3-6.6 1.4-.6 2.4-1.2 3-1.8 1.9 2.3 3 5.2 3.2 8.4h-4.9zM17.1 62.4h28v-6h-28v6zm2-4h24v2h-24v-2zM26.1 35.4v10c0 2.8-2.2 5-5 5h-2v4h2v-2h20v2h2v-4h-2c-2.8 0-5-2.2-5-5v-10h-2v2h-6v-2h-2zm8 4v6c0 2 .8 3.7 2.1 5H26c1.3-1.3 2.1-3 2.1-5v-6h6zM55.1.4h2v3h-2zM51.148 2.876l1.415-1.415 2.121 2.122-1.414 1.414zM50.1 5.4h3v2h-3zM51.175 9.972l2.121-2.121 1.415 1.414-2.122 2.121zM55.1 9.4h2v3h-2zM57.564 9.239l1.414-1.414L61.1 9.946l-1.415 1.414zM59.1 5.4h3v2h-3zM57.538 3.556l2.122-2.121 1.414 1.414-2.121 2.122zM7.1.4h2v2h-2zM7.1 4.4h2v2h-2zM9.1 2.4h2v2h-2zM5.1 2.4h2v2h-2zM51.1 26.4h2v2h-2zM51.1 30.4h2v2h-2zM53.1 28.4h2v2h-2zM49.1 28.4h2v2h-2zM5.1 17.4h2v3h-2zM1.15 19.875l1.413-1.414 2.122 2.121-1.415 1.415zM.1 22.4h3v2h-3zM1.176 26.972l2.121-2.122 1.414 1.414-2.121 2.122zM5.1 26.4h2v3h-2zM7.565 26.238l1.414-1.414 2.121 2.122-1.414 1.414zM9.1 22.4h3v2h-3zM7.539 20.556l2.121-2.121 1.414 1.414-2.12 2.121z"/></svg>