<svg xmlns="http://www.w3.org/2000/svg" viewBox="0 0 46.8 58.2"><path d="M25.5 6.1h-4c-.6 0-1 .4-1 1s.4 1 1 1h4c.6 0 1-.4 1-1s-.4-1-1-1z"/><path d="M43.5.1h-6c-1.7 0-3 1.3-3 3v1h-4c0-1.1-.9-2-2-2h-10c-1.1 0-2 .9-2 2h-4v-1c0-1.7-1.3-3-3-3h-6c-1.7 0-3 1.3-3 3v8c0 1.7 1.3 3 3 3h6c1.7 0 3-1.3 3-3v-1h4c0 1.1.9 2 2 2v7c0 1.1.9 2 2 2v10c-1.1 0-2 .9-2 2v2c0 1.1.9 2 2 2v5.2l-4.2.8c-.4.1-.7.4-.8.8l-.8 4.2h-2.2v-1c0-1.7-1.3-3-3-3h-6c-1.7 0-3 1.3-3 3v8c0 1.7 1.3 3 3 3h6c1.7 0 3-1.3 3-3v-1h7c1.6 2.2 4.8 2.7 7 1 .4-.3.7-.6 1-1h7v1c0 1.7 1.3 3 3 3h6c1.7 0 3-1.3 3-3v-8c0-1.7-1.3-3-3-3h-6c-1.7 0-3 1.3-3 3v1h-2.2l-.8-4.2c-.1-.4-.4-.7-.8-.8l-4.2-.8v-5.2c1.1 0 2-.9 2-2v-2c0-1.1-.9-2-2-2v-10c1.1 0 2-.9 2-2v-7c1.1 0 2-.9 2-2h4v1c0 1.7 1.3 3 3 3h6c1.7 0 3-1.3 3-3v-8c0-1.7-1.3-3-3-3zm-41 11v-1h1c.6 0 1-.4 1-1s-.4-1-1-1h-1v-2h1c.6 0 1-.4 1-1s-.4-1-1-1h-1v-1c0-.6.4-1 1-1h2v10h-2c-.6 0-1-.5-1-1zm7 1h-2v-10h2c.6 0 1 .4 1 1v1h-1c-.6 0-1 .4-1 1s.4 1 1 1h1v2h-1c-.6 0-1 .4-1 1s.4 1 1 1h1v1c0 .5-.4 1-1 1zm3-4v-2h4v2h-4zm4.9 36.8l3.1-.6v2.8c-.4.3-.7.6-1 1h-2.8l.7-3.2zM2.5 55.1v-1h1c.6 0 1-.4 1-1s-.4-1-1-1h-1v-2h1c.6 0 1-.4 1-1s-.4-1-1-1h-1v-1c0-.6.4-1 1-1h2v10h-2c-.6 0-1-.5-1-1zm7 1h-2v-10h2c.6 0 1 .4 1 1v1h-1c-.6 0-1 .4-1 1s.4 1 1 1h1v2h-1c-.6 0-1 .4-1 1s.4 1 1 1h1v1c0 .5-.4 1-1 1zm3-4v-2h6.1v.1c-.1.6-.1 1.2 0 1.8v.1h-6.1zm11 2c-1.7 0-3-1.3-3-3 0-.5.1-1.1.4-1.5.3-.5.6-.8 1.1-1.1.9-.5 2-.5 2.9 0h.1c.5.3.8.6 1.1 1.1.8 1.4.3 3.3-1.1 4.1-.5.2-1 .4-1.5.4zm21-7v1h-1c-.6 0-1 .4-1 1s.4 1 1 1h1v2h-1c-.6 0-1 .4-1 1s.4 1 1 1h1v1c0 .6-.4 1-1 1h-2v-10h2c.6 0 1 .4 1 1zm-7-1h2v10h-2c-.6 0-1-.4-1-1v-1h1c.6 0 1-.4 1-1s-.4-1-1-1h-1v-2h1c.6 0 1-.4 1-1s-.4-1-1-1h-1v-1c0-.6.4-1 1-1zm-3 6h-6.1V52c.1-.6.1-1.2 0-1.8v-.1h6.1v2zm-4.8-7.2l.6 3.2h-2.8c-.3-.4-.6-.7-1-1v-2.8l3.2.6zm-5.2 1.3h-1.8v-9.1h2v9.1zm2-11.1h-6v-2h6v2zm-2-4h-2v-10h2v10zm2-12h-6v-7h2v2c0 .6.4 1 1 1s1-.4 1-1v-2h2v7zm2-9h-10v-6h10v6zm2-4h4v2h-4v-2zm6 5v-1h1c.6 0 1-.4 1-1s-.4-1-1-1h-1v-2h1c.6 0 1-.4 1-1s-.4-1-1-1h-1v-1c0-.6.4-1 1-1h2v10h-2c-.6 0-1-.5-1-1zm7 1h-2v-10h2c.6 0 1 .4 1 1v1h-1c-.6 0-1 .4-1 1s.4 1 1 1h1v2h-1c-.6 0-1 .4-1 1s.4 1 1 1h1v1c0 .5-.4 1-1 1z"/></svg>