<svg xmlns="http://www.w3.org/2000/svg" viewBox="0 0 6.1 7.3"><path d="M.7.567c-.4 0-.7.3-.7.7v5.3c0 .4.3.7.7.7h4.8c.4 0 .7-.3.7-.7v-2.7c0-.2-.1-.4-.2-.6l-2-2.3c-.2-.2-.4-.3-.7-.3H.7zm0 .3h2.5c.2 0 .4.1.5.2l2 2.3c.1.1.2.3.2.4v2.7c0 .2-.2.4-.4.4H.7c-.2 0-.4-.2-.4-.4v-5.3c0-.1.2-.3.4-.3z"/><path d="M3.3 1.367c-.4 0-.7.5-.4.9l1.4 1.7c.1.1.2.2.4.2.1 0 .3 0 .4-.1.1-.1.2-.2.2-.3 0-.1 0-.3-.1-.4l-1.4-1.7c-.2-.2-.3-.3-.5-.3zm0 .3c.1 0 .2 0 .2.1l1.5 1.7c.1.1.1.1.1.2s0 .1-.1.2c-.1 0-.1.1-.2.1s-.1 0-.2-.1l-1.4-1.7c-.2-.3-.1-.5.1-.5zM.9.067c-.1 0-.3.1-.3.3v.4h.3v-.4h.8v.4H2v-.4c0-.1-.1-.3-.3-.3H.9zm1.5 3.2v2.6h.3v-2.6h-.3z"/><path d="M2.2 3.367l-.1.2.5.3.5-.3-.1-.2-.3.2-.5-.2zm.3 1.9l-.5.3.1.2.3-.2.3.2.1-.2-.3-.3zm-1.1-1.5l-.1.2 2.3 1.3.1-.2-2.3-1.3z"/><path d="M1.9 3.667h-.3v.4l-.3.2.1.2.5-.3v-.5zm1.7 1l-.5.3v.6h.3v-.4l.3-.2-.1-.3zm0-.9l-2.3 1.3.1.2 2.3-1.3-.1-.2z"/><path d="M3.2 3.667v.6l.5.3.1-.2-.3-.2v-.4l-.3-.1zm-1.8 1l-.1.2.3.2v.4h.3v-.6l-.5-.2z"/></svg>