<svg xmlns="http://www.w3.org/2000/svg" viewBox="0 0 52.4 58.5"><path d="M11.2 23.2c1.3 0 2.4-.8 2.8-2h3.2c.6 0 1-.4 1-1s-.4-1-1-1H14c-.5-1.6-2.2-2.4-3.8-1.8-.9.3-1.5 1-1.8 1.8H5.2c-.6 0-1 .4-1 1s.4 1 1 1h3.2c.4 1.2 1.5 2 2.8 2zm0-4c.6 0 1 .4 1 1s-.4 1-1 1-1-.4-1-1 .5-1 1-1z"/><path d="M47.2.2h-12c-2.8 0-5 2.2-5 5v18c0 .6.4 1 1 1 .2 0 .4-.1.6-.2l2.7-1.8h.9l-5.5 8.6c-1.2-.4-2.4-.6-3.7-.6-1.8 0-3.7.4-5.3 1.3l-3.6-4.3h.6l2.7 1.8c.5.3 1.1.2 1.4-.3.1-.2.2-.4.2-.6v-18c0-2.8-2.2-5-5-5h-12c-2.8 0-5 2.2-5 5v18c0 .6.4 1 1 1 .2 0 .4-.1.6-.2l2.7-1.8h2.2l9.7 13.1c.3 1.2.8 2.4 1.4 3.5.1.1.1.3.2.4l-.2.4c-.7 1.2-1.2 2.4-1.5 3.7-.1.6-.2 1.2-.2 1.9.2 2.6 1.7 5 4 6.3 1.6 1 3.5 1.6 5.4 1.7h1.1c1.3-.1 2.7-.4 3.9-.9 3.3-1.4 5.5-4.2 5.5-7.1v-.8c-.2-1.7-.8-3.4-1.7-4.8-.1-.1-.1-.2-.2-.3l.2-.3c.8-1.4 1.4-3 1.6-4.6l9.6-17.1h2.1l2.7 1.8c.5.3 1.1.2 1.4-.3.1-.2.2-.4.2-.6v-18C52.2 2.5 50 .2 47.2.2zm-15 6h18v2h-18v-2zm3-4h12c1.3 0 2.4.8 2.8 2H32.4c.4-1.2 1.5-2 2.8-2zM29.9 33c.6.3 1.2.6 1.7 1h.1c.2.2.5.4.7.6.2.2.4.4.5.6.1.1.1.2.2.2.1.1.2.2.3.4.1.1.1.2.2.3l.3.6c0 .1.1.2.1.2.1.1.1.3.1.5v.2c0 .2.1.4.1.7-.1 1.7-.6 3.3-1.5 4.7l-.4.8c-1.5 2.9-2.2 6.2-2.1 9.4 0 .2 0 .4-.1.6 0 .1-.1.1-.1.2s-.1.2-.2.3c0 .1-.1.2-.2.2-.1.1-.1.2-.2.3-.1.1-.2.1-.2.2s-.2.2-.3.2-.2.1-.3.2-.2.1-.3.2-.2.1-.3.1-.2.1-.3.1c-.1 0-.2.1-.3.1-.1 0-.2.1-.4.1s-.2 0-.3.1c-.2 0-.4 0-.5.1h-.5c-.1 0-.2 0-.3-.1-.1 0-.2-.1-.4-.1-.1 0-.2-.1-.3-.1-.1 0-.2-.1-.4-.1-.1 0-.2-.1-.3-.1-.1-.1-.2-.1-.3-.2-.1-.1-.2-.1-.3-.2-.1-.1-.2-.2-.3-.2 0-.1-.1-.2-.1-.3-.1-.1-.2-.2-.2-.3 0-.1-.1-.1-.2-.2s-.1-.2-.2-.4c0-.1-.1-.1-.1-.2-.1-.2-.1-.4-.1-.6 0-1-.1-1.9-.2-2.9 0-.2 0-.4-.1-.5-.2-1.5-.6-2.9-1.1-4.3-.3-.6-.5-1.2-.8-1.7-.2-.3-.3-.6-.4-.9-.6-1-1-2.1-1.3-3.3 0-.1 0-.3-.1-.4v-1.7c0-.1.1-.3.1-.4 0-.1 0-.1.1-.2 0-.1.1-.3.2-.4 0-.1.1-.1.1-.2.1-.1.2-.3.2-.4l.1-.1c.1-.2.2-.3.4-.5.5-.6 1.1-1.1 1.8-1.5 1.5-.9 3.2-1.4 5-1.4 1.3-.1 2.5.2 3.7.7zM2.2 11.2h18v2h-18v-2zm3-4h12c1.3 0 2.4.8 2.8 2H2.4c.4-1.2 1.5-2 2.8-2zm-1 18c-.2 0-.4.1-.6.2l-1.4 1V15.2h18v11.1l-1.4-1c-.2-.1-.4-.2-.6-.2h-14zm10.5 2l4.5 5.4-.1.1c-.1.1-.2.1-.2.2l-.6.6-3.3-3.9c-.4-.4-1-.5-1.4-.1-.4.4-.5 1-.1 1.4l3.6 4.2c-.3.6-.6 1.2-.7 1.8l-7.2-9.7h5.5zm3.5 23c0-.5 0-1 .1-1.5.2-.8.4-1.5.8-2.2 0 .1.1.2.1.4 0 .1 0 .1.1.2l.3.9v.2c.1.3.1.5.2.8 0 .1 0 .2.1.3.1.3.1.7.2 1.1v.2c0 .3.1.7.1 1.1v1.7c0 .3 0 .5.1.8v.1c-1.2-1.1-2-2.5-2.1-4.1zm13.9 3.9V54c.1-.3.1-.5.1-.8v-1.8c0-.4.1-.7.1-1v-.2c0-.4.1-.7.2-1.1 0-.1 0-.2.1-.3.1-.3.1-.5.2-.8 0-.1 0-.2.1-.2.1-.3.2-.6.2-.8 0-.1 0-.1.1-.2 0-.1.1-.2.1-.3.5.9.8 2 .9 3v.7c-.1 1.6-.9 3-2.1 3.9zm3.6-18.2c-.3-.7-.7-1.3-1.1-1.9l-.1-.1 4.6-7.2c.3-.5.2-1.1-.3-1.4-.5-.3-1.1-.2-1.4.3L33 32.5c-.4-.3-.8-.6-1.3-.8l6-9.4h5.7l-7.7 13.6zm13.1-15.5c-.2-.1-.4-.2-.6-.2h-14c-.2 0-.4.1-.6.2l-1.4 1V10.2h18v11.1l-1.4-.9z"/><path d="M47.2 14.2H44c-.5-1.6-2.2-2.4-3.8-1.8-.9.3-1.5 1-1.8 1.8h-3.2c-.6 0-1 .4-1 1s.4 1 1 1h3.2c.5 1.6 2.2 2.4 3.8 1.8.9-.3 1.5-1 1.8-1.8h3.2c.6 0 1-.4 1-1s-.4-1-1-1zm-6 2c-.6 0-1-.4-1-1s.4-1 1-1 1 .4 1 1-.4 1-1 1zm-16 30.9v4.1c0 .6.4 1 1 1s1-.4 1-1v-4.1c2.1-.5 3.4-2.7 2.9-4.8-.4-1.4-1.5-2.5-2.9-2.9v-4.1c0-.6-.4-1-1-1s-1 .4-1 1v4.1c-2.1.5-3.4 2.7-2.9 4.8.4 1.4 1.5 2.5 2.9 2.9zm1-5.9c1.1 0 2 .9 2 2s-.9 2-2 2-2-.9-2-2 .9-2 2-2z"/></svg>