<svg xmlns="http://www.w3.org/2000/svg" viewBox="0 0 128 128.3"><path d="M14 96.2c-3.3 0-6 2.7-6 6s2.7 6 6 6 6-2.7 6-6-2.7-6-6-6zm0 8c-1.1 0-2-.9-2-2s.9-2 2-2 2 .9 2 2-.9 2-2 2zm94-2c0 3.3 2.7 6 6 6s6-2.7 6-6-2.7-6-6-6-6 2.7-6 6zm8 0c0 1.1-.9 2-2 2s-2-.9-2-2 .9-2 2-2 2 .9 2 2z"/><path d="M123 54.2c2.8 0 5-2.2 5-5v-18c0-2.8-2.2-5-5-5s-5 2.2-5 5v7h-2v-10c0-1.1-.9-2-2-2s-2 .9-2 2v10H99.9c0-.7.1-1.3.1-2 0-19.9-16.1-36-36-36s-36 16.1-36 36c0 .7 0 1.3.1 2H14c-.4 0-.8.1-1.1.3L2.7 45.3c-1.7 1.1-2.7 3-2.7 5v9.9c0 3.3 2.7 6 6 6h6v22.2C4.3 89.5-1 96.6.1 104.2s8.2 13 15.8 11.9c6.1-.9 11-5.7 11.9-11.9h11.8c-.1.3-.3.6-.5.9-1 .6-2.1 1-3.2 1.2-2 .3-4 1.2-5.6 2.5-.6.5-1 1.2-1.2 2-.3 1.7.2 3.4 1.4 4.6 1.5 2 4.5 4.1 6.8 4.1 2.4 0 9.3 3.4 11.3 5.1 1.7 1.4 4.3 1.3 7 1.1.6 0 1.5-.1 2.1 0 1 1.8 4.4 1.9 9.2 2.1 1.5 0 3.1.1 4.6.3.4.1.8.1 1.2.1 5.4 0 22.5-3.6 24.4-6.5 1.7-2.5 3.4-10.6-.5-13.2-.9-.6-1.7-1.4-2.4-2.2-.7-.8-1.5-1.5-2.4-2.1h8.3c1.1 7.6 8.2 13 15.8 11.9 7.6-1.1 13-8.2 11.9-15.8-.9-6.1-5.7-11-11.9-11.9V42.2h2v7c.1 2.8 2.3 5 5.1 5zM53 70.5c.1-1.4.2-2.8.3-4.1C36.7 60.5 28 42.2 33.9 25.5S58.1.1 74.7 6 100 30.2 94.1 46.9C91 55.5 84.5 62.3 76 65.8c.2 1.3.5 2.7.7 4 11.9-4.6 20.5-15.1 22.7-27.6H112v46.2c-6.1.9-10.9 5.7-11.8 11.8h-12c-.1-.3-.2-.7-.3-.9-.3-1-.6-1.9-1.1-2.9-1.3-2.6-4.1-2.5-5.5-2.4h-.7c-1-.4-1.9-.9-2.8-1.4-.6-2.9-1.3-5.8-1.9-8.6-1.7-7.4-3.3-14.6-4.3-21.3 10.8-4.2 16.2-16.3 12-27.1-4.2-10.8-16.3-16.2-27.1-12s-16.2 16.3-12 27.1c2.3 5.9 7 10.4 13 12.4-.4 10.5-1.8 20.9-4.1 31.2h-.6c-2.5 0-9 2.5-10.9 4.4-.4.4-.8 1-1 1.5H27.8c-.9-6.1-5.7-10.9-11.8-11.8V42.2h12.5C30.8 55.4 40.2 66.3 53 70.5zm5.3-25.8c-.7.8-1.1 1.9-1 3 .1.8.1 1.8.2 3.1-4.2-3.6-4.6-9.9-.9-14.1 3.6-4.2 9.9-4.6 14.1-.9 4.2 3.6 4.6 9.9.9 14.1-.2.3-.5.5-.8.8 0-1 .1-1.9.2-2.8.3-2.2-1.3-4.2-3.5-4.4H67l-5.7.1c-1.2-.2-2.3.3-3 1.1zM78 43.2c0-7.7-6.3-14-14-14s-14 6.3-14 14c0 5.2 2.9 10 7.5 12.4v3.3c-8.7-3.6-12.8-13.5-9.2-22.2 3.6-8.7 13.5-12.8 22.2-9.2S83.3 41 79.7 49.7c-1.6 4-4.7 7.2-8.7 9-.1-1.1-.2-2.2-.2-3.2C75.2 53 78 48.3 78 43.2zm-72 19c-1.1 0-2-.9-2-2v-9.9c0-.7.3-1.3.9-1.7l7.1-4.7v18.3H6zm8 50c-5.5 0-10-4.5-10-10s4.5-10 10-10 10 4.5 10 10-4.5 10-10 10zm80.4-.4c1.1.8.6 5.7-.5 7.5-2.4 1.7-19 5.3-21.3 4.9-1.8-.3-3.7-.5-5.5-.5-2 0-4-.2-5.9-.4-.1-.3-.3-.5-.5-.7-1.1-1.1-2.8-1-5.2-.9-1.2 0-3.7.2-4.2-.2-2.1-1.7-9.9-6-13.8-6-1.4-.4-2.6-1.2-3.5-2.3-.3-.3-.9-.9-.8-1.4.2-.5 1.2-.8 1.6-1l2.1-.6c1.8-.3 3.6-1 5-2.1 1.1-1.2 1.9-2.7 2.1-4.3.1-.8.4-1.5.8-2.2 1-1.1 6.6-3.2 8-3.2H55c.9 0 1.7-.6 1.9-1.5 3.9-16.2 5.4-32.8 4.4-49.4l5.7-.1c-1.2 10.8 1.8 23.8 5 37.7.7 3.2 1.5 6.6 2.2 9.9.2 1 1.2 1.7 2.2 1.6 1 .6 2 1.1 3.1 1.5.7.2 1.4.2 2 .2 1 0 1.6 0 1.7.2.3.8.6 1.5.8 2.3 1 3.2 2.2 6.8 5.1 6.8.4 0 1.5 1.1 2.2 1.8 1 .7 2 1.6 3.1 2.4zm29.6-9.6c0 5.5-4.5 10-10 10s-10-4.5-10-10 4.5-10 10-10 10 4.5 10 10zm-2-71c0-.6.4-1 1-1s1 .4 1 1v18c0 .6-.4 1-1 1s-1-.4-1-1v-18z"/></svg>