<svg xmlns="http://www.w3.org/2000/svg" viewBox="0 0 70.3 70.5"><path d="M59.8 10.5C53.2 3.9 44.4.3 35.1.3S17 3.9 10.4 10.5.2 25.9.2 35.2s3.6 18.1 10.2 24.7 15.4 10.2 24.7 10.2 18.1-3.6 24.7-10.2S70 44.5 70 35.2s-3.6-18.1-10.2-24.7zm5.8 36.1l-9.4-8.8c.1-.8.2-1.7.2-2.6v-1.3l11.1 5.2c-.4 2.6-1 5.1-1.9 7.5zm-5 8.9l-6.2-11.3c.5-1.2 1-2.4 1.3-3.6l8.9 8.4c-1.1 2.3-2.4 4.4-4 6.5zm-12-3.8l2.3 12c-2.2 1.2-4.6 2.2-7.1 2.9l1.6-12.8c1.1-.6 2.2-1.3 3.2-2.1zm-13.5 2.4c-10.4 0-18.9-8.5-18.9-18.9s8.5-18.9 18.9-18.9S54 24.8 54 35.2s-8.5 18.9-18.9 18.9zM23.7 65.7l8.8-9.4c.9.1 1.7.2 2.6.2h1.2l-5.2 11c-2.5-.3-5-.9-7.4-1.8zm-8.9-5l11.3-6.2c1.2.5 2.4 1 3.6 1.3l-8.4 8.9c-2.3-1.1-4.5-2.4-6.5-4zM3.7 43.9l12.7 1.6c.6 1.1 1.3 2.2 2.2 3.2L6.6 51c-1.2-2.3-2.2-4.7-2.9-7.1zm.9-20.1l9.4 8.8c-.1.9-.2 1.7-.2 2.6v1.2l-11-5.2c.3-2.6.9-5 1.8-7.4zm5-8.9l6.2 11.3c-.5 1.1-1 2.4-1.3 3.6l-8.9-8.4c1.1-2.3 2.4-4.5 4-6.5zm4.6 24.3c.2 1.3.6 2.5 1.1 3.7L3.1 41.4c-.4-2-.6-4.1-.6-6.2v-1.4l11.7 5.4zm7.4-20.5l-2.3-12c2.2-1.2 4.6-2.2 7.1-2.9l-1.6 12.8c-1.1.6-2.2 1.3-3.2 2.1zm24.9-14l-8.8 9.4c-.8-.1-1.7-.2-2.6-.2h-1.3l5.2-11c2.6.3 5.1.9 7.5 1.8zm8.8 5l-11.2 6.2c-1.1-.5-2.4-1-3.6-1.3l8.4-8.9c2.3 1.1 4.4 2.4 6.4 4zm11.2 16.8l-12.8-1.6c-.6-1.1-1.4-2.2-2.2-3.2l12-2.3c1.3 2.2 2.3 4.6 3 7.1zM56 31.1c-.2-1.3-.6-2.5-1.1-3.7L67.1 29c.4 2 .6 4.1.6 6.2v1.4L56 31.1zm6.2-13.9l-12.6 2.4c-.9-.9-1.9-1.7-3-2.3l10.7-5.9c.3.3.6.5.8.8 1.6 1.5 2.9 3.2 4.1 5zM36.5 2.7L31 14.3c-1.3.2-2.5.6-3.7 1.1l1.6-12.2c2-.4 4.1-.6 6.2-.6.5.1.9.1 1.4.1zM17.1 8l2.4 12.6c-.9.9-1.7 1.9-2.4 3l-5.9-10.7.8-.8c1.6-1.5 3.3-2.9 5.1-4.1zM7.9 53.1l12.6-2.4c.9.9 1.9 1.7 3 2.4L12.8 59l-.8-.8c-1.5-1.6-2.9-3.2-4.1-5.1zm25.8 14.6l5.4-11.6c1.3-.2 2.5-.6 3.7-1.1l-1.5 12.2c-2 .4-4.1.6-6.2.6-.5 0-1-.1-1.4-.1zm19.4-5.4l-2.4-12.6c.9-.9 1.7-2 2.4-3L59 57.4c-.3.3-.5.6-.8.8-1.6 1.6-3.3 3-5.1 4.1z"/><path d="M35.1 29.6c-3.1 0-5.6 2.5-5.6 5.6s2.5 5.6 5.6 5.6 5.6-2.5 5.6-5.6-2.5-5.6-5.6-5.6zm0 8.8c-1.8 0-3.2-1.4-3.2-3.2s1.4-3.2 3.2-3.2 3.2 1.4 3.2 3.2-1.4 3.2-3.2 3.2zm3.1 5.2h-6.3c-.7 0-1.2.5-1.2 1.2v4.8c0 .7.5 1.2 1.2 1.2h6.3c.7 0 1.2-.5 1.2-1.2v-4.8c0-.6-.5-1.2-1.2-1.2zM37 48.4h-3.9V46H37v2.4zm-5-21.6h6.3c.7 0 1.2-.5 1.2-1.2v-4.8c0-.7-.5-1.2-1.2-1.2H32c-.7 0-1.2.5-1.2 1.2v4.8c0 .6.5 1.2 1.2 1.2zm1.2-4.8h3.9v2.4h-3.9V22zm16.5 16.6l-4.1-2.4c-.3-.2-.6-.2-.9-.1-.3.1-.6.3-.7.6l-3.1 5.5c-.2.3-.2.6-.1.9.1.3.3.6.6.7l4.1 2.4c.2.1.4.2.6.2h.3c.3-.1.6-.3.7-.6l3.1-5.5c.3-.6.1-1.3-.5-1.7zm-4.2 4.9l-2-1.2 1.9-3.4 2 1.2-1.9 3.4zm-25-11.7l4.1 2.4c.2.1.4.2.6.2.4 0 .8-.2 1-.6l3.1-5.5c.2-.3.2-.6.1-.9-.1-.3-.3-.6-.6-.7l-4-2.5c-.6-.3-1.3-.1-1.6.4l-3.1 5.5c-.2.3-.2.6-.1.9 0 .4.2.6.5.8zm4.2-4.9l2 1.2-1.9 3.4-2-1.2 1.9-3.4zM44 33.7c.2.4.6.6 1 .6.2 0 .4-.1.6-.2l4.1-2.4c.6-.3.8-1.1.4-1.6L47 24.6c-.2-.3-.4-.5-.7-.6s-.6 0-.9.1l-4.1 2.4c-.3.2-.5.4-.6.7s0 .6.1.9l3.2 5.6zm1.5-6.8l1.9 3.4-2 1.2-1.9-3.4 2-1.2zm-19.3 9.8c-.2-.3-.4-.5-.7-.6s-.6 0-.9.1l-4.1 2.4c-.6.3-.8 1.1-.4 1.6l3.1 5.5c.2.3.4.5.7.6h.3c.2 0 .4-.1.6-.2l4.1-2.4c.6-.3.8-1.1.4-1.6l-3.1-5.4zm-1.5 6.8l-1.9-3.4 2-1.2 1.9 3.4-2 1.2z"/></svg>