<svg xmlns="http://www.w3.org/2000/svg" viewBox="0 0 24 24"><path d="M14.8 6.3H9.2c-1.9.1-2.8 1-2.9 2.9v5.6c.1 1.9 1 2.8 2.9 2.9h5.6c1.9-.1 2.8-1 2.9-2.9V9.2c-.1-1.9-1-2.8-2.9-2.9zM12 15.6c-2 0-3.6-1.6-3.6-3.6S10 8.4 12 8.4s3.6 1.6 3.6 3.6-1.6 3.6-3.6 3.6zm3.8-6.5c-.5 0-.8-.4-.8-.8 0-.5.4-.8.8-.8.5 0 .8.4.8.8 0 .5-.4.8-.8.8zM14.4 12c0 1.3-1 2.3-2.3 2.3s-2.3-1-2.3-2.3 1-2.3 2.3-2.3 2.3 1 2.3 2.3zM12 0C5.4 0 0 5.4 0 12s5.4 12 12 12 12-5.4 12-12S18.6 0 12 0zm7 14.9c-.1 2.5-1.5 4-4.1 4.1H9.1c-2.5-.1-4-1.5-4.1-4.1V9.1c.1-2.5 1.5-4 4.1-4.1h5.8c2.5.1 4 1.5 4.1 4.1v5.8z"/></svg>