<svg xmlns="http://www.w3.org/2000/svg" viewBox="0 0 86.8 87.7"><path d="M83.8 30.6l1.5-1.5c.5-.5.8-1.2.8-2 0-.7-.3-1.4-.8-2l-3-3 .3-.3c.8-.8.8-2.2 0-3.1L79 15.1c-.8-.8-2.2-.8-3.1 0l-.3.3-3-3c-1.1-1.1-2.8-1.1-3.9 0l-1.5 1.5-2-2c-.3-.3-.9-.3-1.2 0l-1.7 1.7c-.2.2-.3.4-.3.6s.1.5.3.6l1 1-.7.7c-.3-.2-.8-.1-1 .1L58 20.5c-.6-1.8-2.1-2.9-4.3-2.9H33.1c-2.2 0-3.7 1.1-4.3 2.9l-3.7-3.7c-.3-.3-.7-.3-1-.1l-.8-.7 1-1c.2-.2.3-.4.3-.6 0-.2-.1-.5-.3-.6l-1.7-1.7c-.3-.3-.9-.3-1.2 0l-2 2-1.5-1.5c-1.1-1.1-2.8-1.1-3.9 0l-3 3-.3-.3c-.8-.8-2.2-.8-3.1 0L4 18.9c-.4.4-.6.9-.6 1.5s.2 1.1.6 1.5l.3.3-3 3C.2 26.3.2 28 1.3 29.1l1.5 1.5-2 2c-.2.2-.3.4-.3.6 0 .2.1.5.3.6l1.7 1.7c.2.2.4.3.6.3.2 0 .4-.1.6-.3l1-1 .7.7c-.1.1-.1.3-.1.4 0 .2.1.5.3.6l10.2 10.2L3.5 62.6c-.2.3-2 2.8-1.1 4.7C3 68.4 4.3 69 6.3 69h19.3c.8 2.3 1.7 4.2 2.8 5.6.2.2.4.4.7.4h28.6c.3 0 .5-.1.7-.4 1.1-1.4 2-3.3 2.8-5.6h19.3c2 0 3.3-.6 3.9-1.7.9-1.9-.9-4.4-1.1-4.7L71.5 45.9l9.6-9.6c.2-.2.3-.4.3-.6 0-.2 0-.3-.1-.4l.7-.7 1 1c.2.2.4.3.6.3s.5-.1.6-.3l1.7-1.7c.3-.3.3-.9 0-1.2l-2.1-2.1zm-6.5-14.1c.2-.2.4-.2.6 0l3.6 3.6c.2.2.2.4 0 .6l-.4.3-4.1-4.2.3-.3zm-7.2-2.7c.4-.4 1-.4 1.4 0l12.6 12.6c.2.2.3.4.3.7s-.1.5-.3.7l-1.5 1.5-14-14 1.5-1.5zM5.3 20.7c-.2-.2-.2-.4 0-.6l3.6-3.6c.2-.2.4-.2.6 0l.3.3L5.6 21l-.3-.3zm-2.7 7.1c-.4-.4-.4-1 0-1.4l12.6-12.6c.4-.4 1-.4 1.4 0l1.5 1.5-14 14-1.5-1.5zm19.5-10.6l.7.7L6.7 34l-.7-.7 16.1-16.1zm2.4 1.5l4.4 4.4c-3.4 4.4-9.7 14.2-6.6 23v.4c0 1.2.1 2.5.2 4.1L17.8 46 7.5 35.7l17-17zM6.9 65c-.3-.5.4-1.6.7-2.1l9.5-11.7 4.2 3.9c.3 3.3.4 7.1 1.5 10.4H8.7c-1 0-1.6-.2-1.8-.5zm49.3 6.1H29.5c-.9-1.4-.8-1.2-1.5-3.3-2.4-7.2-2.9-16.9-3-21.1v-1c-3.3-8.5 3.6-18.4 6.7-22.3 0 0 0-.1.1-.1v-1.2l-.1-.1h-.4c.1-1.8 1.2-1.6 1.9-1.6h20.4c.7 0 1.8-.1 1.9 1.6l-.4.4s0 .1-.1.1v.1s0 .1-.1.1v1.1c3 3.7 9.4 11 7 19.2l-12.7-8.7c-1.5-1.8-3.6-2.8-6-2.8-4.1 0-7.4 3.2-7.7 7.2-.1.1-.2.3-.2.5v14.4c-2 2-3.3 4.8-3.3 7.9 0 6.1 5 11.1 11.1 11.1 2.4 0 4.7-.8 6.5-2.1L59 67c-.2.7-.4.4-.6 1.1-.4 1.9-1.2 1.7-2.2 3zm11.7-20.3c-1 .3-1.9.9-2.6 1.7L50.8 41.2c.2-.7.3-1.5.3-2.2 0-.5 0-.9-.1-1.4l16.9 13.2zM52.8 67.1c.7-1.2 1.2-2.5 1.5-3.9l8.6-3.7 1.8-.8c.5 1 1.4 1.7 2.4 2.2l-14.3 6.2zM37.2 43.6c.8 1 1.8 1.8 3 2.4v4.5c-1.1.3-2.1.8-3 1.4v-8.3zm26.9 13.5l-.4.2c.1-1.1.3-2.3.4-3.4l.3.2c-.2.6-.4 1.3-.4 2 0 .3 0 .6.1 1zm-2.2.9l-7.3 3.2c0-6.1-5-11.1-11.1-11.1-.5 0-.9 0-1.4.1v-3.6c.5.1.9.1 1.4.1 2.8 0 5.3-1.5 6.7-3.8l12.4 9.7c-.3 1.8-.5 3.7-.7 5.4zM47.1 36c.7.8 1 1.9 1 3 0 .6-.1 1.2-.3 1.8-.7 1.8-2.5 3-4.4 3-.5 0-1.1-.1-1.6-.3-1.9-.7-3.2-2.5-3.2-4.5 0-2.6 2.1-4.8 4.8-4.8 1.4 0 2.8.6 3.7 1.8zm-3.7 17c4.5 0 8.2 3.7 8.2 8.2 0 4.5-3.7 8.2-8.2 8.2-4.5 0-8.2-3.7-8.2-8.2 0-4.5 3.7-8.2 8.2-8.2zm28.9 3c0 .8-.4 1.6-1 2.2l-1.5.7h-.3c-1.2 0-2.3-.8-2.7-1.9-.1-.3-.2-.6-.2-1 0-.5.1-1 .4-1.4.5-.9 1.5-1.5 2.5-1.5h.4c.9.1 1.7.7 2.1 1.5.2.5.3 1 .3 1.4zm9 9.7c-.2.4-.9.6-2 .6H63.2c.2-.6.4-1.3.5-2l6.9-3c.8-.1 1.5-.4 2.1-.9 1.1-.9 1.8-2.2 1.8-3.7 0-.5-.1-1-.2-1.5l6.2 8c.4.6 1.1 1.8.8 2.5zm-8.9-14.3c-.6-.4-1.2-.6-1.9-.8L68.4 49l1.2-1.2 2.8 3.6zM67 47.9l-2.5-2c3-8.8-3.3-18.5-6.7-22.8l4.4-4.4 17 17L67 47.9zM80 34L63.9 17.9l.7-.7 16.1 16.1-.7.7zM65.3 15.4"/><path d="M46.6 38.1c0-.1 0-.1-.1-.2 0-.1 0-.1-.1-.2 0-.1 0-.1-.1-.2 0 0 0-.1-.1-.1 0 0 0-.1-.1-.1v-.1s0-.1-.1-.1v-.2c-.4-.5-.9-.9-1.6-1.2-.3-.1-.7-.2-1.1-.2-1.8 0-3.3 1.5-3.3 3.3 0 1.8 1.5 3.3 3.3 3.3s3.3-1.5 3.3-3.3c.1-.1.1-.4 0-.7zm-3.2 2.4c-.9 0-1.6-.7-1.6-1.6 0-.9.7-1.6 1.6-1.6.2 0 .3 0 .5.1.1 0 .2.1.4.2.3.2.6.6.7.9v.4c0 .9-.8 1.6-1.6 1.6zm0 25.5c2.6 0 4.8-2.1 4.8-4.8 0-2.6-2.1-4.8-4.8-4.8s-4.8 2.1-4.8 4.8c0 2.6 2.1 4.8 4.8 4.8zm0-7.8c1.7 0 3 1.4 3 3 0 1.7-1.4 3-3 3-1.7 0-3-1.4-3-3-.1-1.7 1.3-3 3-3zm13 17.1H30.3c-1.2 0-2.2 1-2.2 2.2v7.7c0 1.2 1 2.2 2.2 2.2h26.1c1.2 0 2.2-1 2.2-2.2v-7.7c0-1.2-1-2.2-2.2-2.2zm-1 8.7c0 .2-.2.3-.4.3H31.7c-.2 0-.4-.1-.4-.3v-5.3c0-.2.2-.3.4-.3H55c.2 0 .4.1.4.3V84zM24.8 8.6H27v4c0 2.5 2.5 3.5 3.9 3.7h24.8c1.3-.2 3.9-1.2 3.9-3.7v-4H62c.5 0 .9-.4.9-.9V5.9c-.1-1-1.1-2.9-4.2-2.9h-5.3c-.4-1-1.3-1.9-3-1.9h-14c-1.7 0-2.6 1-3 1.9h-5.3C25 3 24 4.9 23.9 5.9v1.8c0 .5.4.9.9.9zm4 2.6v-.4H58v.4H28.8zm26.9 3.4H31.1c-.3-.1-2.1-.4-2.3-1.7h29.1c-.2 1.3-1.9 1.7-2.2 1.7zm-30-8.5c0-.2.3-1.3 2.5-1.3h6c.5 0 .8-.4.9-.8 0-.2.1-1.1 1.4-1.1h14c1.2 0 1.4.9 1.4 1.1 0 .5.4.8.9.8h6c2.1 0 2.4 1.1 2.5 1.3v.8H25.7v-.8z"/></svg>