<svg xmlns="http://www.w3.org/2000/svg" viewBox="0 0 96 96.4"><path d="M80.395 59.41l2.676-2.972 12.264 11.038-2.676 2.973zM.584 67.563l11.981-11.346 2.75 2.905-11.98 11.345z"/><path d="M90 96H6c-3.3 0-6-2.7-6-6V67h32v2c0 5 4 9 9 9h14c5 0 9-4 9-9v-2h32v23c0 3.3-2.7 6-6 6zM4 71v19c0 1.1.9 2 2 2h84c1.1 0 2-.9 2-2V71H67.8c-1 6.2-6.4 11-12.8 11H41c-6.5 0-11.9-4.8-12.8-11H4z"/><path d="M84 69h-4V18H16v51h-4V14h72z"/><path d="M48 65c-8.3 0-15-6.7-15-15s6.7-15 15-15 15 6.7 15 15-6.7 15-15 15zm0-26c-6.1 0-11 4.9-11 11s4.9 11 11 11 11-4.9 11-11-4.9-11-11-11zm29-22h-4v-7H23v7h-4V6h58z"/><path d="M70 9h-4V4H30v5h-4V0h44z"/></svg>