<svg xmlns="http://www.w3.org/2000/svg" viewBox="0 0 67.8 67.8"><path d="M52.1 67.7c-1.8 0-5.2-.3-9.7-1.7-8.3-2.6-16.5-8-24.4-15.9C5.7 37.8.5 28.4.3 18.5c0-1.1.9-2 1.9-2 1.1 0 1.9.9 2 1.9.1 8.8 5.1 17.4 16.5 28.9C38.3 64.9 52.2 63.8 53 63.7c1.2-.1 2.4-.4 3.6-.9 1.3-.5 2.5-1.2 3.5-2 .1-.1.2-.1.3-.2l2.4-2.3c1.3-1.3 1.3-3.3.1-4.4L53.2 44c-1.2-1.2-3.2-1.1-4.4.1L43.9 49c-.6.6-1.6.7-2.3.3-.3-.2-.6-.4-1-.6-3.2-1.8-7.6-4.2-12.3-8.9-4.7-4.7-7.1-9.1-8.9-12.3l-.1-.2c-.1-.3-.3-.5-.4-.8-.4-.8-.3-1.7.3-2.4l4.9-4.9c1.3-1.3 1.3-3.3.1-4.4L14.4 5c-.6-.6-1.3-.9-2.2-.9-.8 0-1.7.4-2.3 1L7.3 8c-.5.6-.9 1.3-1.3 2-.5 1-1.7 1.3-2.6.8-1-.5-1.3-1.7-.8-2.6.5-1 1.1-1.9 1.7-2.7l.1-.1L7 2.6C8.3 1.3 10.1.5 12 .5s3.7.7 5 2l9.8 9.8c2.7 2.7 2.7 7.2-.1 10l-3.9 3.9c1.7 3 3.9 7 8.1 11.1 4.2 4.2 8.2 6.4 11.1 8.1l3.9-3.9c2.8-2.8 7.3-2.8 10-.1l9.8 9.8c2.7 2.7 2.6 7.2-.1 10l-2.8 2.7c-.2.2-.4.3-.7.4-1.2.9-2.6 1.6-4 2.2-1.5.6-3 1-4.6 1.1-.2 0-.7.1-1.4.1z"/></svg>