<svg xmlns="http://www.w3.org/2000/svg" viewBox="0 0 45.9 46.2"><path d="M22.9 16.1c-3.9 0-7 3.1-7 7s3.1 7 7 7 7-3.1 7-7-3.2-7-7-7zm0 12c-2.8 0-5-2.2-5-5s2.2-5 5-5 5 2.2 5 5-2.3 5-5 5z"/><path d="M35.6 10.4c-3.3-3.3-7.8-5.3-12.7-5.3-4.8 0-9.3 1.9-12.7 5.3-3.4 3.4-5.3 8-5.3 12.7 0 4.8 1.9 9.3 5.3 12.7 3.4 3.4 7.9 5.3 12.7 5.3 4.8 0 9.3-1.9 12.7-5.3 3.2-3.3 5.3-7.7 5.3-12.7 0-4.8-1.9-9.4-5.3-12.7zm0 5.6c.7-.7 1.1-1.7 1.2-2.7 1.5 2.1 2.4 4.4 2.9 6.9-.7-.7-1.7-1.1-2.8-1.1-1.3 0-2.5.6-3.2 1.7-.3-1.3-.8-2.5-1.5-3.6 1.2.1 2.5-.3 3.4-1.2zm3.8 7.1c0 1.4-1.1 2.5-2.5 2.5s-2.5-1.1-2.5-2.5 1.1-2.5 2.5-2.5 2.5 1.1 2.5 2.5zm-6.5 0c0 5.5-4.5 10-10 10s-10-4.5-10-10 4.5-10 10-10 10 4.5 10 10zm1.7-11.7c1 1 1 2.6 0 3.5-1 1-2.6 1-3.5 0-1-1-.9-2.6.1-3.5.8-.9 2.4-.9 3.4 0zm-8.8-5.1c2.5.4 4.8 1.4 6.9 2.9-1 0-2 .4-2.7 1.2-.9.9-1.3 2.2-1.1 3.5-1.1-.7-2.3-1.2-3.6-1.5 1-.8 1.7-2 1.7-3.2-.1-1.1-.5-2.1-1.2-2.9zm-2.9.3c1.4 0 2.5 1.1 2.5 2.5s-1.1 2.5-2.5 2.5-2.5-1.1-2.5-2.5 1.1-2.5 2.5-2.5zM20 6.3c-.7.7-1.1 1.7-1.1 2.8 0 1.3.6 2.5 1.7 3.2-1.3.3-2.5.8-3.6 1.5.2-1.3-.2-2.6-1.1-3.5-.7-.7-1.7-1.1-2.7-1.2 1.9-1.4 4.3-2.3 6.8-2.8zm-8.8 5.1s.1 0 0 0c1.1-1 2.6-1 3.6 0s.9 2.6-.1 3.5c-1 .9-2.5.9-3.5 0-.9-.9-.9-2.5 0-3.5zM9 13.3c0 1 .4 2 1.2 2.7.9.9 2.2 1.3 3.5 1.1-.7 1.1-1.2 2.3-1.5 3.6-.7-1-1.9-1.7-3.2-1.7-1 0-2 .4-2.8 1.1.4-2.4 1.3-4.8 2.8-6.8zm2.4 9.8c0 1.4-1.1 2.5-2.5 2.5s-2.5-1.1-2.5-2.5 1.1-2.5 2.5-2.5 2.5 1.1 2.5 2.5zm-1.2 7.1c-.8.7-1.2 1.7-1.2 2.7-1.5-2.1-2.4-4.4-2.9-6.9.7.7 1.7 1.1 2.8 1.1 1.3 0 2.5-.6 3.2-1.7.3 1.3.8 2.5 1.5 3.6-1.2-.2-2.5.2-3.4 1.2zm1.1 4.6c-1-1-1-2.5-.1-3.5l.1-.1c1-1 2.6-.9 3.5.1 1 1 .9 2.6-.1 3.5-.9.9-2.5.9-3.4 0zm8.7 5c-2.5-.4-4.8-1.4-6.9-2.9 1 0 2-.4 2.7-1.2.9-.9 1.3-2.2 1.1-3.5 1.1.7 2.3 1.2 3.6 1.5-1 .7-1.7 1.9-1.7 3.2.1 1.2.5 2.2 1.2 2.9zm2.9-.2c-1.4 0-2.5-1.1-2.5-2.5s1.1-2.5 2.5-2.5 2.5 1.1 2.5 2.5-1.1 2.5-2.5 2.5zm2.9.2c.7-.7 1.1-1.7 1.1-2.8 0-1.3-.6-2.5-1.7-3.2 1.3-.3 2.5-.8 3.6-1.5-.2 1.3.2 2.6 1.1 3.5.7.7 1.7 1.1 2.7 1.2-2 1.4-4.3 2.4-6.8 2.8zm8.8-5c-1 1-2.6 1-3.5 0-1-1-.9-2.6.1-3.5 1-.9 2.5-.9 3.5 0 .8.9.8 2.5-.1 3.5zm2.2-1.9c0-1-.4-2-1.2-2.7-.9-.9-2.2-1.3-3.5-1.1.7-1.1 1.2-2.3 1.5-3.6.8 1 2 1.7 3.2 1.7 1 0 2-.4 2.8-1.1-.4 2.4-1.4 4.7-2.8 6.8z"/><path d="M22.9.3C10.3.3.1 10.5.1 23.1s10.2 22.8 22.8 22.8 22.8-10.2 22.8-22.8S35.5.3 22.9.3zm0 1.8c11.6 0 21 9.4 21 21s-9.4 21-21 21-21-9.4-21-21 9.4-21 21-21z"/></svg>