<svg xmlns="http://www.w3.org/2000/svg" viewBox="0 0 62.4 54.5"><path d="M12.2 26.4h2v2h-2zm0-6h2v2h-2zm0 12h2v2h-2z"/><path d="M35.2.4c-6.7 0-13.1 2.5-18.1 7h-3.2c-.6 0-1.2.1-1.8.3L7.5 9.5c-1.9.7-3.2 2.6-3.2 4.7v4.2h-4v18h4v4.2c0 2.1 1.3 4 3.2 4.7l4.7 1.8c.6.2 1.2.3 1.8.3h3.2c5 4.5 11.4 7 18.1 7 14.9 0 27-12.1 27-27S50.1.4 35.2.4zm-33 34v-14h2v14h-2zm56.4 1.7l-7.5 1.5c1.9-3 3-6.5 3-10.3 0-2.1-.3-4-.9-5.9l2.7-8.1c2.7 4 4.3 8.8 4.3 14 0 3.2-.6 6.1-1.6 8.8zm-40.4-8.7c0-9.4 7.6-17 17-17s17 7.6 17 17-7.6 17-17 17-17-7.6-17-17zm-2 13h-1c-2.8 0-5-2.2-5-5v-16c0-2.8 2.2-5 5-5h1v26zm2-31.3c3.6-3.4 8.1-5.5 12.9-6.3l5.1 5.7h-.9c-7.4 0-13.9 4.3-17 10.6v-10zm36.3 2.4l-2.4 7.2c-2.6-5-7.3-8.7-13-9.9l-5.6-6.3c.6 0 1.1-.1 1.7-.1 7.8 0 14.7 3.5 19.3 9.1zM13.9 45.4c-.4 0-.7-.1-1.1-.2l-4.7-1.8C7 43 6.2 41.9 6.2 40.6V14.2c0-1.2.8-2.4 1.9-2.8l4.7-1.8c.3-.1.7-.2 1.1-.2h2.3v3h-1c-3.9 0-7 3.1-7 7v16c0 3.9 3.1 7 7 7h1v3h-2.3zm4.3.3v-9.9c2.6 5.1 7.3 8.9 13.1 10.2l5.6 6.3c-.6 0-1.1.1-1.7.1-6.3 0-12.3-2.4-17-6.7zM39.3 52l-5.1-5.7h.9c5.6 0 10.6-2.4 14.1-6.3l8.4-1.7C54.2 45.5 47.4 50.7 39.3 52z"/><path d="M32.2 27.4c0 1.7 1.3 3 3 3s3-1.3 3-3-1.3-3-3-3-3 1.3-3 3zm4 0c0 .6-.4 1-1 1s-1-.4-1-1 .4-1 1-1 1 .4 1 1zm-1-9c1.7 0 3-1.3 3-3s-1.3-3-3-3-3 1.3-3 3 1.4 3 3 3zm0-4c.6 0 1 .4 1 1s-.4 1-1 1-1-.4-1-1 .5-1 1-1zm-12 10c-1.7 0-3 1.3-3 3s1.3 3 3 3 3-1.3 3-3-1.3-3-3-3zm0 4c-.6 0-1-.4-1-1s.4-1 1-1 1 .4 1 1c0 .5-.4 1-1 1zm15 11c0-1.7-1.3-3-3-3s-3 1.3-3 3 1.3 3 3 3 3-1.4 3-3zm-4 0c0-.6.4-1 1-1s1 .4 1 1-.4 1-1 1-1-.5-1-1zm13-9c1.7 0 3-1.3 3-3s-1.3-3-3-3-3 1.3-3 3 1.4 3 3 3zm0-4c.6 0 1 .4 1 1s-.4 1-1 1-1-.4-1-1 .5-1 1-1zm-26-18h2v2h-2zm6-3h2v2h-2zm-2.438 41.937l1.732-1 1 1.733-1.732 1zm-5.602-3.699l1.733-1 1 1.733-1.733 1zm28.04.762h2v2h-2zm-6 3h2v2h-2zm14.701-21.927l1-1.732 1.732 1-1 1.733zm-.391 6.7l1-1.732 1.732 1-1 1.732zM42.919 6.737l1.732-1 1 1.732-1.732 1zm5.601 3.698l1.731-1 1 1.733-1.732 1z"/><path d="M35.2 22.4c2.8 0 5 2.2 5 5 0 1-.3 2-.9 2.9l1.6 1.2c.8-1.2 1.3-2.6 1.3-4.1 0-3.9-3.1-7-7-7-1.5 0-2.9.4-4.1 1.3l1.2 1.6c.9-.6 1.9-.9 2.9-.9zm4.1 10.7l-1.2-1.6c-.9.6-1.9.9-2.9.9-2.8 0-5-2.2-5-5 0-1 .3-2 .9-2.9l-1.6-1.2c-.9 1.2-1.3 2.6-1.3 4.1 0 3.9 3.1 7 7 7 1.5 0 2.9-.5 4.1-1.3z"/></svg>